<?xml version="1.0" encoding="UTF-8"?>
<svg xmlns="http://www.w3.org/2000/svg" viewBox="0 0 500 500">
  <g id="Background_Simple" data-name="Background Simple">
    <g>
      <path d="M324.18,23.36s-72.74-25.86-144.13,15.31c-71.4,41.18-107.42,122.92-138.36,188.39-30.94,65.48-13.13,132.08,41.37,162.45,54.5,30.37,91.56-14.4,168.02-16.58,76.46-2.18,97.02,8.75,160.47-34.44,63.45-43.19,74.91-145.2,24.87-220.68-50.05-75.48-112.24-94.45-112.24-94.45Z" style="fill: #92e3a9; stroke-width: 0px;"/>
      <path d="M324.18,23.36s-72.74-25.86-144.13,15.31c-71.4,41.18-107.42,122.92-138.36,188.39-30.94,65.48-13.13,132.08,41.37,162.45,54.5,30.37,91.56-14.4,168.02-16.58,76.46-2.18,97.02,8.75,160.47-34.44,63.45-43.19,74.91-145.2,24.87-220.68-50.05-75.48-112.24-94.45-112.24-94.45Z" style="fill: #fff; opacity: .7; stroke-width: 0px;"/>
    </g>
  </g>
  <g id="Plants">
    <g>
      <path d="M454.36,398.16c-4.01-.58-11.61-5.53-11.61-5.54-.08-.05,4.79-4.02,5.12-4.24,3.89-2.49,12.86-5.02,16.85-1.73,2.87,2.37,2.67,6.59.13,9.1-2.59,2.57-7.08,2.89-10.49,2.4Z" style="fill: #92e3a9; stroke-width: 0px;"/>
      <path d="M379.77,359.77c-.09,0,1.77-5.99,1.94-6.36,1.87-4.22,7.96-11.28,13.1-10.74,3.7.39,5.86,4.02,5.13,7.52-.75,3.57-4.31,6.31-7.42,7.79-3.66,1.73-12.73,1.79-12.74,1.79Z" style="fill: #92e3a9; stroke-width: 0px;"/>
      <path d="M372.3,459.83c-1.77,2.2-3.37,4.27-4.82,6.17h-3.64c1.83-2.35,3.97-5.01,6.38-7.88,1.4-1.68,2.93-3.44,4.52-5.24-.36-.44-2.42-2.96-4.04-5.55-3.25,1.09-9.89.8-10.75.75-.25,2.14-.47,4.22-.65,6.19-.41,4.45-.67,8.4-.84,11.73h-2.96c.24-3.4.59-7.44,1.11-12,.24-2.17.55-4.49.88-6.86-.84-.25-7.65-2.38-10.15-4.59-2.27-2.01-4.6-5.2-4.35-8.4.24-3.13,2.96-5.66,6.18-5.08,4.47.81,7.87,8.26,8.41,12.28.03.24.09,2.85.1,4.5.14-.97.27-1.91.43-2.91.3-1.97.66-3.93,1.04-6.04.22-1.01.44-2.04.66-3.07.2-1.03.54-2.09.81-3.15.67-2.44,1.47-4.87,2.33-7.31-1.73-.27-7.84-1.3-10.4-2.95-2.55-1.64-5.33-4.44-5.57-7.64-.23-3.13,2.07-6.05,5.34-5.96,4.54.12,9.03,6.97,10.18,10.86.07.24.58,3.13.82,4.72.53-1.46,1.05-2.92,1.63-4.38,1.68-4.22,3.51-8.43,5.32-12.64.56-1.29,1.09-2.58,1.63-3.87-.61-.09-7.91-1.16-10.78-3.01-2.55-1.64-5.33-4.44-5.57-7.64-.23-3.13,2.07-6.05,5.34-5.96,4.54.12,9.03,6.97,10.18,10.86.09.29.81,4.45.94,5.51,1.19-2.85,2.36-5.69,3.39-8.54,1.43-3.93,2.62-7.87,3.48-11.77-.29-.04-7.91-1.13-10.84-3.02-2.55-1.64-5.33-4.44-5.57-7.64-.23-3.13,2.07-6.05,5.34-5.96,4.54.12,9.03,6.97,10.17,10.86.08.26.63,3.42.85,4.93.14,0,.12,0,.26,0,.88-4.19,1.2-8.36,1.31-12.28.07-2.27,0-4.44-.1-6.55-1.44-.06-8.02-.39-10.85-1.8-2.71-1.35-5.79-3.83-6.38-6.98-.58-3.09,1.39-6.24,4.65-6.51,4.53-.38,9.74,5.94,11.31,9.68.08.2.72,2.37,1.16,3.95-.06-.95-.11-1.94-.19-2.85-.29-3.42-.76-6.54-1.2-9.3-.26-1.57-.53-2.98-.8-4.29-1.38-.79-6.92-4.06-8.75-6.57-1.78-2.45-3.37-6.07-2.44-9.13.91-3,4.11-4.89,7.13-3.63,4.19,1.75,5.91,9.76,5.57,13.8-.03.35-1.12,5.76-1.19,5.72,0,0-.07-.04-.08-.05.28,1.26.57,2.62.85,4.11.5,2.75,1.04,5.87,1.41,9.3.37,3.43.68,7.16.64,11.12-.03,3.97-.26,8.15-1.05,12.42,0,.05-.02.1-.03.15.62-1.18,2.47-4.41,2.64-4.64,2.39-3.27,8.95-8.19,13.26-6.76,3.11,1.03,4.28,4.55,3,7.42-1.31,2.93-4.88,4.61-7.83,5.29-3.33.77-10.59-.71-11.17-.83-.79,4.06-1.94,8.16-3.33,12.25-.79,2.34-1.66,4.67-2.56,7,.57-1,1.09-1.89,1.17-2.01,2.39-3.27,8.95-8.19,13.26-6.76,3.11,1.03,4.28,4.55,3,7.42-1.31,2.93-4.88,4.61-7.83,5.29-3,.69-9.21-.44-10.85-.77-.36.89-.7,1.78-1.06,2.67-1.72,4.26-3.45,8.5-5.03,12.71-.56,1.48-1.05,2.97-1.55,4.45.51-.89.94-1.63,1.02-1.74,2.4-3.27,8.95-8.19,13.26-6.76,3.11,1.03,4.28,4.55,3,7.42-1.31,2.93-4.88,4.61-7.83,5.29-2.86.66-8.6-.34-10.56-.71-.46,1.53-.93,3.07-1.31,4.57-.24,1.03-.54,2.01-.72,3.06-.2,1.04-.4,2.06-.59,3.08-.31,1.97-.63,4.01-.88,5.94-.18,1.34-.33,2.62-.49,3.92.53-1.48,1.64-4.37,1.76-4.6,1.24-2.39,4.19-5.77,7.34-7.55.18-.35.39-.69.64-1.01,1.93-2.48,5.59-3.09,7.96-.83,3.28,3.14,2.01,11.23.24,14.88-.1.22-1.5,2.42-2.4,3.8.65-.73,1.28-1.45,1.96-2.19,1.34-1.48,2.72-2.92,4.2-4.47.74-.72,1.49-1.46,2.24-2.19.73-.75,1.6-1.45,2.41-2.18,1.9-1.66,3.92-3.25,5.98-4.81-1.29-1.18-5.82-5.42-7.05-8.2-1.22-2.77-2-6.65-.43-9.45,1.53-2.74,5.06-3.9,7.74-2.03,3.72,2.61,3.69,10.8,2.49,14.67-.07.24-1.25,2.93-1.92,4.39,1.25-.93,2.49-1.86,3.78-2.76,3.73-2.59,7.58-5.1,11.41-7.61,1.17-.77,2.34-1.55,3.5-2.33-.46-.41-5.96-5.34-7.33-8.46-1.22-2.77-2-6.65-.43-9.45,1.53-2.74,5.06-3.9,7.74-2.03,3.72,2.61,3.69,10.8,2.49,14.67-.09.29-1.78,4.15-2.26,5.11,2.57-1.71,5.11-3.45,7.54-5.26,3.36-2.49,6.53-5.12,9.4-7.9-.22-.19-5.97-5.3-7.38-8.5-1.22-2.77-2-6.65-.43-9.45,1.53-2.74,5.06-3.9,7.74-2.03,3.72,2.61,3.69,10.8,2.49,14.67-.08.25-1.36,3.2-2.01,4.58.12.08.1.07.21.15,3.05-3.01,5.62-6.31,7.87-9.52,1.31-1.86,2.46-3.7,3.53-5.52-1.17-.84-6.47-4.75-8.06-7.49-1.51-2.62-2.72-6.39-1.47-9.34,1.22-2.89,4.6-4.44,7.47-2.86,3.98,2.18,4.85,10.33,4.09,14.31-.04.22-.71,2.37-1.21,3.94.47-.83.98-1.68,1.41-2.48,1.65-3.01,2.97-5.87,4.13-8.42.64-1.45,1.2-2.78,1.7-4.02-.72-1.43-3.53-7.21-3.67-10.31-.14-3.03.53-6.92,3-8.97,2.42-2,6.13-1.82,7.95.9,2.53,3.77-.45,11.4-2.96,14.59-.22.28-4.11,4.19-4.15,4.11,0,0-.04-.07-.04-.09-.46,1.21-.97,2.5-1.56,3.9-1.1,2.57-2.37,5.47-3.96,8.53-1.58,3.06-3.39,6.35-5.6,9.63-2.21,3.3-4.71,6.65-7.73,9.78-.03.04-.07.07-.11.1,1.17-.64,4.49-2.32,4.76-2.42,3.8-1.41,11.98-1.9,14.79,1.67,2.02,2.57,1.06,6.16-1.59,7.84-2.71,1.72-6.62,1.15-9.45.09-3.2-1.2-8.44-6.43-8.86-6.85-2.9,2.95-6.12,5.74-9.53,8.38-1.95,1.51-3.96,2.98-5.99,4.42,1.03-.52,1.95-.98,2.08-1.03,3.8-1.41,11.98-1.9,14.79,1.67,2.02,2.57,1.06,6.16-1.59,7.84-2.71,1.72-6.62,1.15-9.46.09-2.88-1.08-7.44-5.45-8.63-6.63-.79.55-1.57,1.1-2.35,1.64-3.78,2.6-7.57,5.18-11.2,7.83-1.28.93-2.51,1.9-3.74,2.86.91-.46,1.69-.84,1.81-.89,3.8-1.41,11.98-1.9,14.79,1.67,2.02,2.57,1.06,6.16-1.59,7.84-2.71,1.72-6.62,1.15-9.45.09-2.75-1.03-6.99-5.03-8.41-6.42-1.23,1.02-2.47,2.04-3.62,3.09-.77.73-1.56,1.38-2.29,2.16-.74.76-1.47,1.5-2.2,2.24-1.34,1.48-2.74,2.99-4.01,4.47-.89,1.02-1.73,2-2.57,3,1.26-.94,3.78-2.73,4.01-2.86,3.55-1.97,11.56-3.69,14.87-.59,2.39,2.24,1.98,5.93-.39,7.99-2.42,2.11-6.37,2.14-9.33,1.52-3.27-.68-9.02-4.87-9.74-5.39-1.39,1.65-2.72,3.26-3.96,4.8Z" style="fill: #92e3a9; stroke-width: 0px;"/>
    </g>
    <g>
      <path d="M328.36,398.16c-4.01-.58-11.61-5.53-11.61-5.54-.08-.05,4.79-4.02,5.12-4.24,3.89-2.49,12.86-5.02,16.85-1.73,2.87,2.37,2.67,6.59.13,9.1-2.59,2.57-7.08,2.89-10.49,2.4Z" style="fill: #92e3a9; stroke-width: 0px;"/>
      <path d="M253.77,359.77c-.09,0,1.77-5.99,1.94-6.36,1.87-4.22,7.96-11.28,13.1-10.74,3.7.39,5.86,4.02,5.13,7.52-.75,3.57-4.31,6.31-7.42,7.79-3.66,1.73-12.73,1.79-12.74,1.79Z" style="fill: #92e3a9; stroke-width: 0px;"/>
      <path d="M246.3,459.83c-1.77,2.2-3.37,4.27-4.82,6.17h-3.64c1.83-2.35,3.97-5.01,6.38-7.88,1.4-1.68,2.93-3.44,4.52-5.24-.36-.44-2.42-2.96-4.04-5.55-3.25,1.09-9.89.8-10.75.75-.25,2.14-.47,4.22-.65,6.19-.41,4.45-.67,8.4-.84,11.73h-2.96c.24-3.4.59-7.44,1.11-12,.24-2.17.55-4.49.88-6.86-.84-.25-7.65-2.38-10.15-4.59-2.27-2.01-4.6-5.2-4.35-8.4.24-3.13,2.96-5.66,6.18-5.08,4.47.81,7.87,8.26,8.41,12.28.03.24.09,2.85.1,4.5.14-.97.27-1.91.43-2.91.3-1.97.66-3.93,1.04-6.04.22-1.01.44-2.04.66-3.07.2-1.03.54-2.09.81-3.15.67-2.44,1.47-4.87,2.33-7.31-1.73-.27-7.84-1.3-10.4-2.95-2.55-1.64-5.33-4.44-5.57-7.64-.23-3.13,2.07-6.05,5.34-5.96,4.54.12,9.03,6.97,10.18,10.86.07.24.58,3.13.82,4.72.53-1.46,1.05-2.92,1.63-4.38,1.68-4.22,3.51-8.43,5.32-12.64.56-1.29,1.09-2.58,1.63-3.87-.61-.09-7.91-1.16-10.78-3.01-2.55-1.64-5.33-4.44-5.57-7.64-.23-3.13,2.07-6.05,5.34-5.96,4.54.12,9.03,6.97,10.18,10.86.09.29.81,4.45.94,5.51,1.19-2.85,2.36-5.69,3.39-8.54,1.43-3.93,2.62-7.87,3.48-11.77-.29-.04-7.91-1.13-10.84-3.02-2.55-1.64-5.33-4.44-5.57-7.64-.23-3.13,2.07-6.05,5.34-5.96,4.54.12,9.03,6.97,10.17,10.86.08.26.63,3.42.85,4.93.14,0,.12,0,.26,0,.88-4.19,1.2-8.36,1.31-12.28.07-2.27,0-4.44-.1-6.55-1.44-.06-8.02-.39-10.85-1.8-2.71-1.35-5.79-3.83-6.38-6.98-.58-3.09,1.39-6.24,4.65-6.51,4.53-.38,9.74,5.94,11.31,9.68.08.2.72,2.37,1.16,3.95-.06-.95-.11-1.94-.19-2.85-.29-3.42-.76-6.54-1.2-9.3-.26-1.57-.53-2.98-.8-4.29-1.38-.79-6.92-4.06-8.75-6.57-1.78-2.45-3.37-6.07-2.44-9.13.91-3,4.11-4.89,7.13-3.63,4.19,1.75,5.91,9.76,5.57,13.8-.03.35-1.12,5.76-1.19,5.72,0,0-.07-.04-.08-.05.28,1.26.57,2.62.85,4.11.5,2.75,1.04,5.87,1.41,9.3.37,3.43.68,7.16.64,11.12-.03,3.97-.26,8.15-1.05,12.42,0,.05-.02.1-.03.15.62-1.18,2.47-4.41,2.64-4.64,2.39-3.27,8.95-8.19,13.26-6.76,3.11,1.03,4.28,4.55,3,7.42-1.31,2.93-4.88,4.61-7.83,5.29-3.33.77-10.59-.71-11.17-.83-.79,4.06-1.94,8.16-3.33,12.25-.79,2.34-1.66,4.67-2.56,7,.57-1,1.09-1.89,1.17-2.01,2.39-3.27,8.95-8.19,13.26-6.76,3.11,1.03,4.28,4.55,3,7.42-1.31,2.93-4.88,4.61-7.83,5.29-3,.69-9.21-.44-10.85-.77-.36.89-.7,1.78-1.06,2.67-1.72,4.26-3.45,8.5-5.03,12.71-.56,1.48-1.05,2.97-1.55,4.45.51-.89.94-1.63,1.02-1.74,2.4-3.27,8.95-8.19,13.26-6.76,3.11,1.03,4.28,4.55,3,7.42-1.31,2.93-4.88,4.61-7.83,5.29-2.86.66-8.6-.34-10.56-.71-.46,1.53-.93,3.07-1.31,4.57-.24,1.03-.54,2.01-.72,3.06-.2,1.04-.4,2.06-.59,3.08-.31,1.97-.63,4.01-.88,5.94-.18,1.34-.33,2.62-.49,3.92.53-1.48,1.64-4.37,1.76-4.6,1.24-2.39,4.19-5.77,7.34-7.55.18-.35.39-.69.64-1.01,1.93-2.48,5.59-3.09,7.96-.83,3.28,3.14,2.01,11.23.24,14.88-.1.22-1.5,2.42-2.4,3.8.65-.73,1.28-1.45,1.96-2.19,1.34-1.48,2.72-2.92,4.2-4.47.74-.72,1.49-1.46,2.24-2.19.73-.75,1.6-1.45,2.41-2.18,1.9-1.66,3.92-3.25,5.98-4.81-1.29-1.18-5.82-5.42-7.05-8.2-1.22-2.77-2-6.65-.43-9.45,1.53-2.74,5.06-3.9,7.74-2.03,3.72,2.61,3.69,10.8,2.49,14.67-.07.24-1.25,2.93-1.92,4.39,1.25-.93,2.49-1.86,3.78-2.76,3.73-2.59,7.58-5.1,11.41-7.61,1.17-.77,2.34-1.55,3.5-2.33-.46-.41-5.96-5.34-7.33-8.46-1.22-2.77-2-6.65-.43-9.45,1.53-2.74,5.06-3.9,7.74-2.03,3.72,2.61,3.69,10.8,2.49,14.67-.09.29-1.78,4.15-2.26,5.11,2.57-1.71,5.11-3.45,7.54-5.26,3.36-2.49,6.53-5.12,9.4-7.9-.22-.19-5.97-5.3-7.38-8.5-1.22-2.77-2-6.65-.43-9.45,1.53-2.74,5.06-3.9,7.74-2.03,3.72,2.61,3.69,10.8,2.49,14.67-.08.25-1.36,3.2-2.01,4.58.12.08.1.07.21.15,3.05-3.01,5.62-6.31,7.87-9.52,1.31-1.86,2.46-3.7,3.53-5.52-1.17-.84-6.47-4.75-8.06-7.49-1.51-2.62-2.72-6.39-1.47-9.34,1.22-2.89,4.6-4.44,7.47-2.86,3.98,2.18,4.85,10.33,4.09,14.31-.04.22-.71,2.37-1.21,3.94.47-.83.98-1.68,1.41-2.48,1.65-3.01,2.97-5.87,4.13-8.42.64-1.45,1.2-2.78,1.7-4.02-.72-1.43-3.53-7.21-3.67-10.31-.14-3.03.53-6.92,3-8.97,2.42-2,6.13-1.82,7.95.9,2.53,3.77-.45,11.4-2.96,14.59-.22.28-4.11,4.19-4.15,4.11,0,0-.04-.07-.04-.09-.46,1.21-.97,2.5-1.56,3.9-1.1,2.57-2.37,5.47-3.96,8.53-1.58,3.06-3.39,6.35-5.6,9.63-2.21,3.3-4.71,6.65-7.73,9.78-.03.04-.07.07-.11.1,1.17-.64,4.49-2.32,4.76-2.42,3.8-1.41,11.98-1.9,14.79,1.67,2.02,2.57,1.06,6.16-1.59,7.84-2.71,1.72-6.62,1.15-9.45.09-3.2-1.2-8.44-6.43-8.86-6.85-2.9,2.95-6.12,5.74-9.53,8.38-1.95,1.51-3.96,2.98-5.99,4.42,1.03-.52,1.95-.98,2.08-1.03,3.8-1.41,11.98-1.9,14.79,1.67,2.02,2.57,1.06,6.16-1.59,7.84-2.71,1.72-6.62,1.15-9.46.09-2.88-1.08-7.44-5.45-8.63-6.63-.79.55-1.57,1.1-2.35,1.64-3.78,2.6-7.57,5.18-11.2,7.83-1.28.93-2.51,1.9-3.74,2.86.91-.46,1.69-.84,1.81-.89,3.8-1.41,11.98-1.9,14.79,1.67,2.02,2.57,1.06,6.16-1.59,7.84-2.71,1.72-6.62,1.15-9.45.09-2.75-1.03-6.99-5.03-8.41-6.42-1.23,1.02-2.47,2.04-3.62,3.09-.77.73-1.56,1.38-2.29,2.16-.74.76-1.47,1.5-2.2,2.24-1.34,1.48-2.74,2.99-4.01,4.47-.89,1.02-1.73,2-2.57,3,1.26-.94,3.78-2.73,4.01-2.86,3.55-1.97,11.56-3.69,14.87-.59,2.39,2.24,1.98,5.93-.39,7.99-2.42,2.11-6.37,2.14-9.33,1.52-3.27-.68-9.02-4.87-9.74-5.39-1.39,1.65-2.72,3.26-3.96,4.8Z" style="fill: #92e3a9; stroke-width: 0px;"/>
    </g>
    <g>
      <path d="M48.33,405.73c3.56-.51,10.31-4.91,10.32-4.92.07-.05-4.25-3.57-4.55-3.76-3.45-2.21-11.42-4.46-14.97-1.54-2.55,2.1-2.37,5.85-.12,8.09,2.3,2.28,6.29,2.57,9.32,2.13Z" style="fill: #92e3a9; stroke-width: 0px;"/>
      <path d="M114.61,371.62c.08,0-1.58-5.32-1.72-5.65-1.66-3.75-7.07-10.02-11.64-9.54-3.29.35-5.21,3.57-4.56,6.68.66,3.17,3.83,5.61,6.6,6.92,3.25,1.54,11.31,1.59,11.32,1.59Z" style="fill: #92e3a9; stroke-width: 0px;"/>
      <path d="M121.24,460.52c1.57,1.95,3,3.79,4.28,5.48h3.24c-1.63-2.09-3.52-4.45-5.67-7-1.25-1.49-2.61-3.06-4.02-4.65.32-.39,2.15-2.63,3.59-4.93,2.89.96,8.79.71,9.55.67.22,1.9.42,3.75.58,5.5.37,3.95.6,7.46.74,10.42h2.63c-.21-3.02-.52-6.61-.99-10.66-.22-1.93-.49-3.99-.79-6.1.74-.23,6.79-2.11,9.02-4.08,2.01-1.78,4.09-4.62,3.87-7.46-.22-2.78-2.63-5.03-5.49-4.51-3.97.72-7,7.34-7.47,10.91-.03.21-.08,2.53-.09,4-.13-.86-.24-1.7-.38-2.58-.27-1.75-.58-3.49-.92-5.37-.19-.9-.39-1.81-.59-2.73-.18-.91-.48-1.86-.72-2.8-.6-2.16-1.31-4.33-2.07-6.49,1.53-.24,6.97-1.16,9.24-2.62,2.26-1.46,4.74-3.95,4.95-6.79.21-2.78-1.84-5.37-4.74-5.29-4.03.11-8.03,6.19-9.04,9.65-.06.22-.51,2.78-.73,4.19-.47-1.3-.93-2.6-1.45-3.89-1.49-3.75-3.12-7.49-4.73-11.23-.49-1.15-.97-2.29-1.45-3.44.55-.08,7.03-1.03,9.58-2.68,2.26-1.46,4.74-3.95,4.95-6.79.21-2.78-1.84-5.37-4.74-5.29-4.03.11-8.03,6.19-9.04,9.65-.08.26-.72,3.95-.83,4.9-1.06-2.53-2.09-5.06-3.01-7.59-1.27-3.5-2.33-7-3.1-10.46.25-.04,7.03-1,9.63-2.68,2.26-1.46,4.74-3.95,4.95-6.79.21-2.78-1.84-5.37-4.74-5.29-4.03.11-8.03,6.19-9.04,9.65-.07.23-.56,3.04-.76,4.38-.13,0-.1,0-.23,0-.78-3.72-1.07-7.43-1.17-10.91-.06-2.02,0-3.95.09-5.82,1.28-.05,7.13-.35,9.64-1.6,2.41-1.2,5.14-3.4,5.67-6.2.51-2.74-1.23-5.54-4.13-5.78-4.02-.34-8.66,5.27-10.05,8.6-.08.18-.64,2.1-1.03,3.51.06-.85.1-1.72.17-2.53.25-3.04.67-5.81,1.07-8.26.23-1.39.47-2.64.71-3.81,1.23-.7,6.15-3.61,7.77-5.84,1.58-2.18,3-5.39,2.17-8.12-.81-2.67-3.65-4.35-6.33-3.23-3.72,1.55-5.25,8.67-4.95,12.26.03.31.99,5.12,1.06,5.08,0,0,.06-.03.07-.04-.25,1.12-.51,2.33-.76,3.65-.45,2.45-.93,5.21-1.25,8.26-.33,3.04-.6,6.36-.57,9.88.02,3.53.23,7.24.94,11.03,0,.04.02.09.03.13-.55-1.05-2.19-3.92-2.34-4.13-2.13-2.91-7.95-7.28-11.78-6.01-2.76.91-3.8,4.04-2.66,6.59,1.16,2.6,4.34,4.1,6.96,4.7,2.96.68,9.41-.63,9.92-.74.71,3.61,1.72,7.25,2.96,10.89.7,2.08,1.47,4.15,2.28,6.21-.51-.89-.96-1.68-1.04-1.78-2.13-2.91-7.95-7.28-11.78-6.01-2.76.91-3.8,4.04-2.66,6.59,1.16,2.6,4.34,4.1,6.96,4.7,2.66.61,8.18-.39,9.64-.68.32.79.62,1.58.94,2.37,1.53,3.78,3.07,7.55,4.46,11.29.49,1.32.93,2.64,1.37,3.95-.45-.79-.84-1.45-.9-1.54-2.13-2.91-7.95-7.28-11.78-6.01-2.76.91-3.8,4.04-2.66,6.59,1.16,2.6,4.34,4.1,6.96,4.7,2.54.58,7.65-.3,9.38-.63.41,1.36.83,2.72,1.17,4.06.21.92.48,1.79.64,2.72.18.92.35,1.83.53,2.74.27,1.75.56,3.56.78,5.28.16,1.19.3,2.33.44,3.48-.48-1.32-1.46-3.88-1.57-4.08-1.1-2.12-3.72-5.13-6.53-6.71-.16-.31-.35-.61-.57-.89-1.71-2.2-4.97-2.75-7.07-.74-2.92,2.79-1.79,9.98-.21,13.22.09.19,1.33,2.15,2.13,3.38-.58-.65-1.14-1.29-1.74-1.95-1.19-1.31-2.41-2.59-3.73-3.97-.66-.64-1.32-1.29-1.99-1.95-.65-.67-1.42-1.28-2.14-1.94-1.69-1.48-3.48-2.89-5.31-4.28,1.15-1.04,5.17-4.81,6.26-7.29,1.08-2.46,1.77-5.91.38-8.39-1.36-2.43-4.49-3.47-6.88-1.8-3.31,2.31-3.28,9.59-2.22,13.04.07.22,1.11,2.6,1.7,3.9-1.11-.82-2.21-1.65-3.36-2.45-3.31-2.3-6.73-4.53-10.14-6.76-1.04-.68-2.07-1.38-3.11-2.07.41-.37,5.29-4.74,6.51-7.51,1.08-2.46,1.78-5.9.39-8.39-1.36-2.43-4.49-3.47-6.88-1.8-3.31,2.32-3.28,9.59-2.22,13.04.08.26,1.58,3.69,2.01,4.54-2.28-1.52-4.54-3.06-6.7-4.67-2.99-2.21-5.8-4.55-8.35-7.02.19-.17,5.31-4.71,6.56-7.55,1.08-2.46,1.78-5.91.38-8.39-1.36-2.44-4.49-3.47-6.88-1.8-3.31,2.32-3.28,9.59-2.22,13.04.07.23,1.21,2.84,1.78,4.07-.1.07-.08.06-.19.13-2.71-2.67-4.99-5.61-6.99-8.46-1.16-1.65-2.18-3.29-3.14-4.91,1.04-.75,5.75-4.22,7.16-6.65,1.35-2.33,2.41-5.67,1.3-8.3-1.09-2.57-4.09-3.94-6.64-2.54-3.54,1.94-4.31,9.18-3.63,12.72.04.19.63,2.11,1.08,3.5-.42-.74-.87-1.49-1.26-2.2-1.47-2.68-2.64-5.22-3.67-7.48-.57-1.29-1.06-2.47-1.51-3.57.64-1.27,3.14-6.4,3.26-9.16.12-2.69-.47-6.15-2.67-7.97-2.15-1.78-5.44-1.61-7.06.8-2.25,3.35.4,10.13,2.63,12.96.19.24,3.65,3.72,3.68,3.66,0,0,.03-.06.04-.08.41,1.07.86,2.22,1.38,3.46.98,2.29,2.1,4.86,3.51,7.58,1.4,2.72,3.01,5.64,4.97,8.56,1.97,2.93,4.18,5.91,6.87,8.69.03.03.07.06.1.09-1.04-.57-3.99-2.06-4.23-2.15-3.38-1.25-10.65-1.69-13.14,1.49-1.8,2.29-.94,5.47,1.41,6.97,2.41,1.53,5.88,1.03,8.4.08,2.84-1.06,7.5-5.72,7.87-6.09,2.58,2.62,5.44,5.1,8.47,7.45,1.73,1.35,3.52,2.65,5.33,3.93-.91-.46-1.73-.87-1.85-.91-3.38-1.25-10.65-1.68-13.14,1.49-1.8,2.29-.94,5.47,1.41,6.97,2.41,1.53,5.88,1.03,8.4.08,2.56-.96,6.61-4.84,7.67-5.89.7.48,1.39.98,2.09,1.46,3.36,2.31,6.72,4.61,9.95,6.96,1.14.83,2.23,1.68,3.32,2.54-.81-.41-1.5-.75-1.61-.79-3.38-1.25-10.64-1.69-13.14,1.49-1.8,2.29-.94,5.47,1.41,6.97,2.41,1.53,5.88,1.03,8.4.08,2.44-.91,6.21-4.47,7.47-5.7,1.09.91,2.19,1.81,3.21,2.74.68.65,1.38,1.23,2.03,1.92.66.67,1.31,1.33,1.95,1.99,1.19,1.31,2.43,2.66,3.56,3.97.79.9,1.53,1.78,2.28,2.66-1.12-.84-3.36-2.43-3.56-2.54-3.15-1.75-10.27-3.28-13.21-.52-2.12,1.99-1.76,5.26.34,7.1,2.15,1.87,5.66,1.9,8.29,1.35,2.9-.61,8.02-4.32,8.65-4.79,1.23,1.46,2.42,2.9,3.51,4.27Z" style="fill: #92e3a9; stroke-width: 0px;"/>
    </g>
  </g>
  <g id="Device">
    <g>
      <rect x="156.87" y="50.04" width="200.26" height="378.27" rx="7.67" ry="7.67" style="fill: #263238; stroke: #263238; stroke-linecap: round; stroke-linejoin: round;"/>
      <rect x="165.78" y="91.57" width="182.46" height="295.2" style="fill: #fff; stroke: #263238; stroke-linecap: round; stroke-linejoin: round;"/>
      <path d="M276.84,70.91h-39.67c-1.49,0-2.7-1.21-2.7-2.7h0c0-1.49,1.21-2.7,2.7-2.7h39.67c1.49,0,2.7,1.21,2.7,2.7h0c0,1.49-1.21,2.7-2.7,2.7Z" style="fill: #fff; stroke-width: 0px;"/>
      <path d="M267.82,403.44c0-5.98-4.84-10.82-10.82-10.82s-10.82,4.84-10.82,10.82,4.84,10.82,10.82,10.82,10.82-4.84,10.82-10.82Z" style="fill: #fff; stroke: #263238; stroke-linecap: round; stroke-linejoin: round; stroke-width: .7px;"/>
      <rect x="251.52" y="397.95" width="10.97" height="10.97" style="fill: #263238; stroke-width: 0px;"/>
    </g>
  </g>
  <g id="Character_2" data-name="Character 2">
    <g>
      <g>
        <path d="M361.78,274.83l-1.18,9s-4.88,33.43-1.5,50.71c3.38,17.28,9.77,34.93,10.14,39.06s-1.88,20.28.75,33.43c2.63,13.15,7.51,39.06,7.51,39.06l-4.13,9.77s-8.64,5.63-9.77,7.51c-1.13,1.88.75,2.63.75,2.63h27.04s1.13-2.25,1.13-6.39v-26.29c0-2.63,1.5-47.33,3-55.21,1.5-7.89,3-67.61,3-67.61h1.5s7.14,59.35,9.01,65.73c1.88,6.39,9.77,33.8,12.02,39.44,2.25,5.63,4.88,25.17,6.39,30.05s3,10.52,3.38,13.52c.38,3,1.88,6.76,1.88,6.76h20.28s.38-3.38-1.13-5.63c-1.5-2.25-11.27-12.02-12.77-19.16-1.5-7.14,2.25-40.19,1.88-51.83-.38-11.64-3.76-13.15-3.76-23.29s3.76-40.94,3.76-55.59-1.95-28.15-5.67-35.86l-5.22-5.08h-64.6l-3.7,5.28Z" style="fill: #d9d9d9; stroke: #263238; stroke-linecap: round; stroke-linejoin: round;"/>
        <g>
          <path d="M442.15,447.92l-.05.05s-5.26-3.38-7.14-.75c-1.88,2.63-1.88,4.13-1.88,4.13h-4c.84,3.11,1.51,6.01,1.75,7.89.38,3,1.88,6.76,1.88,6.76h20.28s.38-3.38-1.13-5.63c-1.06-1.59-6.24-6.93-9.72-12.45Z" style="fill: #92e3a9; stroke: #263238; stroke-linecap: round; stroke-linejoin: round;"/>
          <path d="M432.72,466h20.28s.13-1.18-.07-2.61h-21.12c.47,1.5.91,2.61.91,2.61Z" style="fill: #fff; stroke: #263238; stroke-linecap: round; stroke-linejoin: round;"/>
        </g>
        <g>
          <path d="M392.53,459.61v-6.39h-7.14s.38-3-3-5.26c-3.38-2.25-6.76,3-6.76,3h-.19l-2.07,4.88s-8.64,5.63-9.77,7.51c-1.13,1.88.75,2.63.75,2.63h27.04s1.13-2.25,1.13-6.39Z" style="fill: #92e3a9; stroke: #263238; stroke-linecap: round; stroke-linejoin: round;"/>
          <path d="M363.59,463.39c-1.1,1.86.76,2.61.76,2.61h27.04s.45-.9.78-2.61h-28.59Z" style="fill: #fff; stroke: #263238; stroke-linecap: round; stroke-linejoin: round;"/>
        </g>
        <path d="M439,427.36c.63-12.79,2.23-30.19,1.98-37.98-.38-11.64-3.76-13.15-3.76-23.29s3.76-40.94,3.76-55.59-1.95-28.15-5.67-35.86l-5.22-5.08h-64.6l-3.7,5.28-1.18,9s-4.88,33.43-1.5,50.71c3.38,17.28,9.77,34.93,10.14,39.06.38,4.13-1.88,20.28.75,33.43,1.15,5.77,2.74,14,4.16,21.43,4.39.95,11.38,2.09,18.45,1.67.33-10.88,1.63-45.2,2.93-52.02,1.5-7.89,3-67.61,3-67.61h1.5s7.14,59.35,9.01,65.73c1.88,6.39,9.77,33.8,12.02,39.44.96,2.4,1.99,7.33,2.97,12.56,4.04.7,9.23.83,14.96-.87Z" style="fill: #fff; stroke: #263238; stroke-linecap: round; stroke-linejoin: round;"/>
        <line x1="404.55" y1="307.12" x2="424.83" y2="290.97" style="fill: none; stroke: #263238; stroke-linecap: round; stroke-linejoin: round;"/>
        <line x1="374.87" y1="292.47" x2="385.39" y2="301.11" style="fill: none; stroke: #263238; stroke-linecap: round; stroke-linejoin: round;"/>
      </g>
      <path d="M418.96,110.46s-8.63-5.1-8.43-2.35c.2,2.75,3.92,4.71,3.92,4.71,0,0-12.35-1.76-14.31-.98-1.96.78,1.37,1.76,1.37,1.76,0,0-15.29,11.77-20.59,19.8-5.29,8.04-10,19.8-4.51,28.82s13.53,16.08,27.06,20c13.53,3.92,26.86-.2,35.88-3.92,9.02-3.73,18.04-14.31,16.47-27.65-1.57-13.33-13.33-27.26-22.16-36.67-8.82-9.41-14.31-8.04-14.31-6.67s-.39,3.14-.39,3.14Z" style="fill: #263238; stroke: #263238; stroke-linecap: round; stroke-linejoin: round;"/>
      <path d="M397.84,166.16l-2.02,15.08s-14.31,4.71-19.61,6.86c-5.29,2.16-7.65,4.9-8.63,7.26-.98,2.35-15.02,34.96-15.61,38.09-.59,3.14.39,4.51,4.71,6.47,4.31,1.96,16.27-5.29,16.27-5.29l1.57,5.49s-7.84,13.33-9.22,17.65c-1.37,4.31-3.53,17.06-3.53,17.06,0,0,14.9,7.45,38.43,6.86,23.53-.59,35.1-7.06,35.1-7.06,0,0-2.55-12.75-5.29-20.2s-5.1-10.39-5.1-13.33,8.63-18.24,8.63-18.24l18.23,8.59s-4.31-14.87-5.48-24.87-3.22-11.62-7.14-15.15-21.18-8.63-21.77-9.02c-.59-.39.78-16.86.78-16.86,0,0-14.84,3.94-20.34.6Z" style="fill: #d9d9d9; stroke: #263238; stroke-linecap: round; stroke-linejoin: round;"/>
      <path d="M409.22,176.49c2.74-1.03,6-3.6,8.57-5.91.2-2.81.39-5.02.39-5.02,0,0-14.84,3.94-20.34.6l-1.34,10.04c3.04,2.7,8,2.06,12.72.29Z" style="fill: #263238; stroke: #263238; stroke-linecap: round; stroke-linejoin: round;"/>
      <g>
        <g>
          <path d="M430.02,254.44c-2.75-7.45-5.1-10.39-5.1-13.33s8.63-18.24,8.63-18.24l18.23,8.59s-4.31-14.87-5.48-24.87c-.64-5.41-1.53-8.36-2.83-10.49-27.94,3.55-58.97-2.82-71.39-5.83-2.49,1.67-3.81,3.48-4.49,5.09-.98,2.35-15.02,34.96-15.61,38.09-.59,3.14.39,4.51,4.71,6.47,4.31,1.96,16.27-5.29,16.27-5.29l1.57,5.49s-7.84,13.33-9.22,17.65-3.53,17.06-3.53,17.06c0,0,14.9,7.45,38.43,6.86,23.53-.59,35.1-7.06,35.1-7.06,0,0-2.55-12.75-5.29-20.2Z" style="fill: #92e3a9; stroke: #263238; stroke-linecap: round; stroke-linejoin: round;"/>
          <path d="M375.48,229.24s-3.91-8.17-2.84-12.43c1.07-4.26,1.78-5.33,1.78-5.33" style="fill: none; stroke: #263238; stroke-linecap: round; stroke-linejoin: round;"/>
        </g>
        <path d="M446.29,206.6c-.64-5.41-1.53-8.36-2.83-10.49-27.94,3.55-58.97-2.82-71.39-5.83-2.49,1.67-3.81,3.48-4.49,5.09-.35.83-2.31,5.41-4.74,11.13,10.99,2.97,53.14,13.43,84.87,8.54-.6-2.91-1.12-5.84-1.42-8.44Z" style="fill: #92e3a9; stroke: #263238; stroke-linecap: round; stroke-linejoin: round;"/>
      </g>
      <g>
        <path d="M401.67,129.7l25.03,16.11-.69,6.51s4.46-4.46,5.14.34c.69,4.8-1.03,7.2-4.11,8.57-3.09,1.37-4.8,1.03-4.8,1.03,0,0-7.54,8.23-13.03,10.29-5.49,2.06-11.29,2.6-14.04-1.86-2.74-4.46-6.53-12.54-5.5-17.34,1.03-4.8,10.29-23.66,10.29-23.66h1.71Z" style="fill: #d9d9d9; stroke: #263238; stroke-linecap: round; stroke-linejoin: round;"/>
        <path d="M404.13,144.93s0,2.16-1.18,3.33c-1.18,1.18-3.92,2.75-3.92,3.92s2.55,3.53,4.9,3.33" style="fill: none; stroke: #263238; stroke-linecap: round; stroke-linejoin: round;"/>
        <path d="M399.81,158.07s3.53,2.75,7.84-.2" style="fill: none; stroke: #263238; stroke-linecap: round; stroke-linejoin: round;"/>
        <path d="M409.23,147.87s4.31-1.57,6.67,1.76" style="fill: none; stroke: #263238; stroke-linecap: round; stroke-linejoin: round;"/>
        <path d="M395.89,145.91s3.53-1.57,5.29.39" style="fill: none; stroke: #263238; stroke-linecap: round; stroke-linejoin: round;"/>
        <path d="M398.05,139.24s1.76-2.55,5.49-1.57" style="fill: none; stroke: #263238; stroke-linecap: round; stroke-linejoin: round;"/>
        <path d="M411.19,139.63s5.49.2,6.67,5.29" style="fill: none; stroke: #263238; stroke-linecap: round; stroke-linejoin: round;"/>
      </g>
      <path d="M361,226.99s-6.08,2.35-8.04,6.08c-1.96,3.73-1.57,12.35,6.08,14.51,7.65,2.16,64.12-9.22,64.12-9.22,0,0,3.14,4.71,4.51,6.08s4.9,4.12,5.1,5.29.59,8.63,2.16,9.02c1.57.39.98-3.53.98-3.53,0,0,2.55-3.73,2.55-5.49s.39-7.45,0-8.82c-.39-1.37-9.61-9.41-11.57-10-1.96-.59-52.16-1.96-56.86-2.75-4.71-.78-7.45-1.37-9.02-1.18Z" style="fill: #d9d9d9; stroke: #263238; stroke-linecap: round; stroke-linejoin: round;"/>
      <g>
        <rect x="415.39" y="150.74" width="11.83" height="26.49" rx="2.31" ry="2.31" transform="translate(681.4 533.78) rotate(-146.39)" style="fill: #92e3a9; stroke: #263238; stroke-miterlimit: 10;"/>
        <path d="M428.99,173.35s1.24-3.18,2.47-5.48,1.24-3.36.35-3.36-3.18,1.06-3.89,3.71c-.71,2.65-.35,5.83-.35,5.83l1.41-.71Z" style="fill: #d9d9d9; stroke: #263238; stroke-miterlimit: 10;"/>
        <path d="M418.39,185.54s10.07-10.07,10.42-10.95c.3-.76-.05-12.35-.15-15.59-.02-.49-.37-.9-.85-.98h0c-.6-.11-1.17.32-1.22.93l-.79,9.29-2.31-11.7c-.1-.49-.52-.84-1.02-.84h0c-.59,0-1.07.5-1.04,1.09l.65,13.04-2.9-11.13c-.15-.58-.75-.93-1.33-.77h0c-.51.14-.85.63-.79,1.16l1.31,11.98-2.47,2.12v-4.24l-2.96-4.98c-.22-.38-.7-.52-1.09-.32h0c-.4.2-.57.68-.39,1.09l1.97,4.39s-3.89,15.9-4.06,16.43c-.18.53.71,3.36,1.24,4.42.53,1.06,24.2,51.22,25.61,53.17,1.41,1.94,10.95,4.95,15.19.35s2.83-9.18.53-14.48-33.56-43.45-33.56-43.45Z" style="fill: #d9d9d9; stroke: #263238; stroke-miterlimit: 10;"/>
      </g>
    </g>
  </g>
  <g id="Icons">
    <g>
      <circle cx="254" cy="149" r="42" style="fill: #92e3a9; stroke-width: 0px;"/>
      <g>
        <polygon points="279.65 129.99 229.86 129.99 254.4 153.65 279.65 129.99" style="fill: #263238; stroke-width: 0px;"/>
        <polygon points="264.37 148.41 281.7 163.73 281.7 132.17 264.37 148.41" style="fill: #263238; stroke-width: 0px;"/>
        <polygon points="244.62 148.38 227.06 131.46 227.06 163.01 244.62 148.38" style="fill: #263238; stroke-width: 0px;"/>
        <polygon points="262.17 150.47 254.37 157.78 246.79 150.48 228.52 165.7 279.4 165.7 262.17 150.47" style="fill: #263238; stroke-width: 0px;"/>
      </g>
    </g>
    <g>
      <circle cx="254" cy="241" r="42" style="fill: #92e3a9; stroke-width: 0px;"/>
      <g>
        <path d="M248.39,227.75c.59,1.02,1.63,1.27,2.67.71,1.37-.75,2.74-1.5,4.03-2.37.49-.33.76-1,1.1-1.49-.25-.6-.38-1-.58-1.36-.55-.99-1.13-1.97-1.69-2.95-1.93-3.34-3.86-6.69-5.79-10.03-.78-1.34-1.76-1.6-3.11-.83-1.23.7-2.47,1.4-3.68,2.14-1.03.63-1.33,1.63-.75,2.65,2.58,4.52,5.18,9.04,7.8,13.54Z" style="fill: #263238; stroke-width: 0px;"/>
        <path d="M277.22,260.66c-2.53-4.4-5.06-8.8-7.62-13.19-.7-1.21-1.66-1.47-2.87-.8-1.27.7-2.54,1.43-3.78,2.18-1.04.62-1.36,1.62-.83,2.65l8.28,14.12c.6.53,1.4.6,2.19.17,1.34-.73,2.69-1.46,3.95-2.31.5-.34.81-.97,1.18-1.45-.22-.6-.3-1.02-.51-1.38Z" style="fill: #263238; stroke-width: 0px;"/>
        <path d="M260.08,252.41c-1.76.62-3.42.43-5.04-.44-.84-.45-1.67-.96-2.38-1.59-3.79-3.35-6.19-7.55-7.35-12.44-.73-3.04-.93-6.02,1.37-8.39l-8.52-14.54c-.67.43-1.31.84-1.92,1.27-2.55,1.78-3.96,4.24-3.73,7.34.22,2.95.52,5.96,1.29,8.81,2.75,10.17,7.9,19.1,14.7,27.09,2.61,3.06,5.52,5.82,9.01,7.9,3.6,2.15,7.88,1.93,11.08-.51l-8.5-14.5Z" style="fill: #263238; stroke-width: 0px;"/>
      </g>
    </g>
    <g>
      <circle cx="254" cy="333" r="42" style="fill: #92e3a9; stroke-width: 0px;"/>
      <g>
        <g>
          <g>
            <path d="M247.81,340.87h-9.33v4.73c0,3.08,2.39,5.6,5.41,5.81l3.92-10.54Z" style="fill: #263238; stroke-width: 0px;"/>
            <path d="M273.82,324.67h-4.04v8.24c0,4.4-3.58,7.97-7.97,7.97h-.14l-14.27,10.56h15.49l-3.83,10.3,13.91-10.3h.84c3.22,0,5.83-2.61,5.83-5.83v-15.1c0-3.22-2.61-5.83-5.83-5.83Z" style="fill: #263238; stroke-width: 0px;"/>
          </g>
          <path d="M261.81,311.97h-29.51c-3.22,0-5.83,2.61-5.83,5.83v15.1c0,3.22,2.61,5.83,5.83,5.83h18.59l-3.83,10.29,13.91-10.29h.84c3.22,0,5.83-2.61,5.83-5.83v-15.1c0-3.22-2.61-5.83-5.83-5.83Z" style="fill: #263238; stroke-width: 0px;"/>
        </g>
        <g>
          <circle cx="238.97" cy="324.97" r="2.09" style="fill: #92e3a9; stroke-width: 0px;"/>
          <path d="M249.57,324.97c0,1.15-.93,2.09-2.09,2.09s-2.09-.93-2.09-2.09.93-2.09,2.09-2.09,2.09.93,2.09,2.09Z" style="fill: #92e3a9; stroke-width: 0px;"/>
          <path d="M258.07,324.97c0,1.15-.93,2.09-2.09,2.09s-2.09-.93-2.09-2.09.93-2.09,2.09-2.09,2.09.93,2.09,2.09Z" style="fill: #92e3a9; stroke-width: 0px;"/>
        </g>
      </g>
    </g>
  </g>
  <g id="Character_1" data-name="Character 1">
    <g>
      <path d="M153.17,210.61l.76-1.03,12.39-16.88s1.68-10.07,2.52-12.59c.84-2.52,2.52-7.83,3.08-9.79.56-1.96,1.12-4.2,2.24-3.36,1.12.84,1.12,4.2.56,5.88-.56,1.68-.56,3.92-.28,4.76.28.84,15.11-11.75,16.51-10.63,1.4,1.12-.56,6.44-3.36,10.07-2.8,3.64-14.27,16.79-14.27,16.79,0,0-13.15,35.25-17.07,40.85-3.92,5.6-4.76,3.08-8.67,0-3.92-3.08-8.95-10.07-8.95-10.07l14.55-13.99Z" style="fill: #fff; stroke: #263238; stroke-linecap: round; stroke-linejoin: round;"/>
      <path d="M173.6,187.11s1.4-5.04,2.8-6.16,6.71-4.48,6.71-4.48l3.64-11.19s1.12-.84.84,1.68c-.28,2.52-.84,8.11-1.68,10.63-.84,2.52-4.48,6.99-4.48,6.99" style="fill: #fff; stroke: #263238; stroke-linecap: round; stroke-linejoin: round;"/>
      <g>
        <polygon points="133.03 167.8 154.57 210.05 138.07 226.84 133.31 210.89 133.03 167.8" style="fill: #92e3a9; stroke: #263238; stroke-linecap: round; stroke-linejoin: round;"/>
        <polygon points="136.09 220.22 138.07 226.84 154.57 210.05 151.6 204.23 136.09 220.22" style="fill: #263238; stroke: #263238; stroke-miterlimit: 10;"/>
      </g>
      <g>
        <path d="M81.38,445.98l-1.99,7.93s-11.73,6.5-12.63,7.4c-.9.9-.54,4.69-.54,4.69h33.57s.36-3.79-.72-8.66c-.63-2.82-.93-10.61-.93-10.61l-16.76-.74Z" style="fill: #263238; stroke: #263238; stroke-linecap: round; stroke-linejoin: round;"/>
        <path d="M66.21,466h33.57s.08-.82.05-2.17h-33.68c-.04,1.12.06,2.17.06,2.17Z" style="fill: #fff; stroke: #263238; stroke-linecap: round; stroke-linejoin: round;"/>
        <path d="M67.48,460.95s2.71-2.71,8.12-3.61c5.41-.9,10.29,1.08,11.37,2.17s1.8,4.15,1.8,4.15l-22.62.18s-1.2-2.17,1.33-2.89Z" style="fill: #fff; stroke: #263238; stroke-linecap: round; stroke-linejoin: round;"/>
        <path d="M96.35,452.37c0,1.94-.69,3.52-1.53,3.52s-1.53-1.58-1.53-3.52.69-3.52,1.53-3.52,1.53,1.58,1.53,3.52Z" style="fill: #fff; stroke: #263238; stroke-linecap: round; stroke-linejoin: round;"/>
      </g>
      <g>
        <path d="M165.18,445.98l1.99,7.93s11.73,6.5,12.63,7.4c.9.9.54,4.69.54,4.69h-33.57s-.36-3.79.72-8.66c.63-2.82.93-10.61.93-10.61l16.76-.74Z" style="fill: #263238; stroke: #263238; stroke-linecap: round; stroke-linejoin: round;"/>
        <path d="M180.34,466h-33.57s-.08-.82-.05-2.17h33.68c.04,1.12-.06,2.17-.06,2.17Z" style="fill: #fff; stroke: #263238; stroke-linecap: round; stroke-linejoin: round;"/>
        <path d="M179.08,460.95s-2.71-2.71-8.12-3.61c-5.41-.9-10.29,1.08-11.37,2.17-1.08,1.08-1.8,4.15-1.8,4.15l22.62.18s1.2-2.17-1.33-2.89Z" style="fill: #fff; stroke: #263238; stroke-linecap: round; stroke-linejoin: round;"/>
        <path d="M150.2,452.37c0,1.94.69,3.52,1.53,3.52s1.53-1.58,1.53-3.52-.69-3.52-1.53-3.52-1.53,1.58-1.53,3.52Z" style="fill: #fff; stroke: #263238; stroke-linecap: round; stroke-linejoin: round;"/>
      </g>
      <polygon points="81 277.66 79.89 295.16 81.38 445.98 98.13 446.73 114.89 307.45 117.13 306.7 148.42 446.73 165.18 445.98 157.72 352.14 146.46 271.6 81 277.66" style="fill: #fff; stroke: #263238; stroke-linecap: round; stroke-linejoin: round;"/>
      <polyline points="116.36 282.41 116.36 295.18 119.85 289.38 120.43 280.67" style="fill: none; stroke: gray; stroke-linecap: round; stroke-linejoin: round;"/>
      <g>
        <path d="M92.46,165.84s-37.77,16.51-38.33,18.19c-.56,1.68-10.63,43.37-8.95,47.28,1.68,3.92,6.71,6.99,12.03,5.04,5.32-1.96,10.35-22.38,10.35-22.38,0,0,11.75,35.81,11.75,39.45s1.12,26.02,1.12,26.02c0,0,21.54,3.08,39.45-1.12,17.91-4.2,26.58-6.71,26.58-6.71l-8.39-51.2s-4.48-50.64-5.04-52.6-32.45-2.52-34.97-2.24c-2.52.28-5.6.28-5.6.28Z" style="fill: #92e3a9; stroke: #263238; stroke-linecap: round; stroke-linejoin: round;"/>
        <path d="M63.81,225.95c-1.43-4.37-3.97-8.49-6.67-10.89-3.12-2.77-7.27-1.2-10.11.52-1.5,7.77-2.47,14.3-1.85,15.73,1.68,3.92,6.71,6.99,12.03,5.04,2.41-.89,4.75-5.55,6.6-10.4Z" style="fill: #263238; stroke: #263238; stroke-miterlimit: 10;"/>
      </g>
      <g>
        <path d="M74.87,236.95l63.72-13.39-.52-3.16s-.09-1.04-.25-2.81l-64.74,13.6c.6,1.91,1.2,3.85,1.79,5.76Z" style="fill: #263238; stroke-width: 0px;"/>
        <path d="M146.46,271.6l-6.29-38.34-62.56,12.96c1.02,3.61,1.69,6.33,1.69,7.2,0,3.64,1.12,26.02,1.12,26.02,0,0,21.54,3.08,39.45-1.12,17.91-4.2,26.58-6.71,26.58-6.71Z" style="fill: #263238; stroke: #263238; stroke-miterlimit: 10;"/>
        <path d="M98.06,165.56c-2.52.28-5.6.28-5.6.28,0,0-7.09,3.1-15.16,6.74l32.68,33.77s6.97-33.67,6.39-36.58c-.25-1.25-.71-2.71-1.16-3.97-8.01-.31-15.94-.37-17.14-.24Z" style="fill: #263238; stroke: #263238; stroke-miterlimit: 10;"/>
      </g>
      <path d="M108.69,156.05s1.68,14.55,2.52,17.35c.84,2.8-4.76,22.38-4.76,22.38,0,0-16.23-16.51-18.19-21.26s-6.44-21.26-6.44-21.26c0,0,14.27,7.27,26.86,2.8Z" style="fill: #fff; stroke: #263238; stroke-linecap: round; stroke-linejoin: round;"/>
      <path d="M81.83,153.25s1.02,3.77,2.3,8.22c.68.38,1.5.81,2.5,1.31,5.1,2.55,10.76,3.96,16.99,3.11,2.67-.36,4.45-2.04,5.76-4.2-.4-3.13-.69-5.64-.69-5.64-12.59,4.48-26.86-2.8-26.86-2.8Z" style="fill: #263238; stroke: #263238; stroke-linecap: round; stroke-linejoin: round;"/>
      <g>
        <path d="M101.5,119.33s4.25,8.49,7.08,12.18c2.83,3.68,7.36,11.89,5.38,16.7-1.98,4.8-3.28,13.01-9.63,13.88-6.23.85-11.89-.57-16.99-3.11-5.1-2.55-5.66-3.4-5.66-3.4,0,0-4.25,0-6.8-1.98-2.55-1.98-7.65-8.21-6.23-13.59,1.42-5.38,4.81-5.95,4.81-5.95,0,0-7.08-2.83-2.55-9.91,4.53-7.08,14.16-9.63,18.69-9.63s11.89,4.81,11.89,4.81Z" style="fill: #fff; stroke: #263238; stroke-linecap: round; stroke-linejoin: round;"/>
        <path d="M100.08,128.67s.57,1.13,2.55,2.55c1.98,1.42,4.81.57,3.96,3.11-.85,2.55-2.83,3.4-4.53,3.11" style="fill: none; stroke: #263238; stroke-linecap: round; stroke-linejoin: round;"/>
        <path d="M106.88,140.57s-5.38,3.11-9.06,2.83c-3.68-.28-5.38-1.7-5.38-1.7" style="fill: none; stroke: #263238; stroke-linecap: round; stroke-linejoin: round;"/>
        <path d="M94.99,143.4s1.98,7.08,4.81,4.81c2.83-2.27,3.4-5.95,3.4-5.95,0,0-4.25,1.7-8.21,1.13Z" style="fill: #263238; stroke: #263238; stroke-linecap: round; stroke-linejoin: round;"/>
        <path d="M94.71,131.13c.63.98.65,2.09.04,2.48-.6.38-1.6-.1-2.23-1.09-.63-.98-.65-2.09-.04-2.48.6-.38,1.6.1,2.23,1.09Z" style="fill: #263238; stroke-width: 0px;"/>
        <path d="M103.75,126.85c.63.98.65,2.09.04,2.48s-1.6-.1-2.23-1.09c-.63-.98-.65-2.09-.04-2.48s1.6.1,2.23,1.09Z" style="fill: #263238; stroke-width: 0px;"/>
        <path d="M88.77,130.28s.82-3.78,3.78-4.27" style="fill: none; stroke: #263238; stroke-linecap: round; stroke-linejoin: round;"/>
        <path d="M98.47,124.36s1.64-3.12,4.27-1.81" style="fill: none; stroke: #263238; stroke-linecap: round; stroke-linejoin: round;"/>
      </g>
      <path d="M74.31,128.11s18.4,0,19.82-3.11-2.83-5.38-2.83-5.38c0,0,15.86.57,17.56-4.25s-5.66-6.8-7.93-6.8h-3.4s-.85-7.08-9.06-5.38c-8.21,1.7-24.07,12.46-26.05,18.69-1.98,6.23-6.51,8.21-3.11,15.57,3.4,7.36,12.74,13.31,12.74,13.31,0,0-1.42-5.38,1.42-5.66,2.83-.28,7.65,1.7,8.49,1.7s3.4-2.27,1.98-3.68c-1.42-1.42-2.83-2.27-3.11-3.11-.28-.85,1.42-3.68.28-6.23-1.13-2.55-6.8-5.66-6.8-5.66Z" style="fill: #263238; stroke: #263238; stroke-linecap: round; stroke-linejoin: round;"/>
      <g>
        <rect x="72.78" y="138.24" width="12.5" height="27.98" rx="2.31" ry="2.31" transform="translate(-71.05 69.2) rotate(-33.61)" style="fill: #92e3a9; stroke: #263238; stroke-miterlimit: 10;"/>
        <path d="M70.92,162.11s-1.31-3.36-2.61-5.78c-1.31-2.42-1.31-3.54-.37-3.54s3.36,1.12,4.1,3.92c.75,2.8.37,6.16.37,6.16l-1.49-.75Z" style="fill: #fff; stroke: #263238; stroke-miterlimit: 10;"/>
        <path d="M82.11,174.98s-10.63-10.63-11-11.56c-.32-.8.05-13.04.16-16.46.02-.52.39-.95.9-1.04h0c.63-.12,1.23.34,1.28.98l.83,9.81,2.44-12.36c.1-.51.55-.88,1.07-.88h0c.63,0,1.13.52,1.09,1.15l-.69,13.77,3.07-11.75c.16-.61.79-.98,1.4-.81h0c.54.15.89.67.83,1.22l-1.39,12.65,2.61,2.24v-4.48l3.12-5.26c.24-.4.74-.55,1.15-.34h0c.42.21.6.72.41,1.15l-2.08,4.64s4.1,16.79,4.29,17.35-.75,3.54-1.31,4.66c-.56,1.12-25.55,54.09-27.05,56.14-1.49,2.05-11.56,5.22-16.04.37-4.48-4.85-2.98-9.7-.56-15.29,2.42-5.6,35.44-45.88,35.44-45.88Z" style="fill: #fff; stroke: #263238; stroke-miterlimit: 10;"/>
      </g>
      <line x1="85.84" y1="288.46" x2="100" y2="296.65" style="fill: none; stroke: gray; stroke-linecap: round; stroke-linejoin: round;"/>
      <line x1="143.19" y1="282.87" x2="134.63" y2="294.04" style="fill: none; stroke: gray; stroke-linecap: round; stroke-linejoin: round;"/>
    </g>
  </g>
  <g id="Floor">
    <line x1="30" y1="466" x2="477" y2="466" style="fill: none; stroke: #263238; stroke-linecap: round; stroke-linejoin: round;"/>
  </g>
</svg>